<?xml version="1.0" encoding="UTF-8" standalone="no"?>
<svg
   id="svg8"
   version="1.1"
   viewBox="0 0 55.032989 15.935012"
   height="60.226818"
   width="207.9987"
   sodipodi:docname="blender_logo.svg"
   xml:space="preserve"
   inkscape:version="1.2.1 (9c6d41e410, 2022-07-14)"
   xmlns:inkscape="http://www.inkscape.org/namespaces/inkscape"
   xmlns:sodipodi="http://sodipodi.sourceforge.net/DTD/sodipodi-0.dtd"
   xmlns="http://www.w3.org/2000/svg"
   xmlns:svg="http://www.w3.org/2000/svg"
   xmlns:rdf="http://www.w3.org/1999/02/22-rdf-syntax-ns#"
   xmlns:cc="http://creativecommons.org/ns#"
   xmlns:dc="http://purl.org/dc/elements/1.1/"><sodipodi:namedview
     id="namedview50"
     pagecolor="#ffffff"
     bordercolor="#000000"
     borderopacity="0.25"
     inkscape:showpageshadow="2"
     inkscape:pageopacity="0.0"
     inkscape:pagecheckerboard="0"
     inkscape:deskcolor="#d1d1d1"
     showgrid="false"
     inkscape:zoom="2.7708122"
     inkscape:cx="77.594578"
     inkscape:cy="64.78245"
     inkscape:window-width="1024"
     inkscape:window-height="706"
     inkscape:window-x="-8"
     inkscape:window-y="-8"
     inkscape:window-maximized="1"
     inkscape:current-layer="g3018" /><defs
     id="defs2"><clipPath
       clipPathUnits="userSpaceOnUse"
       id="clipPath3020"><path
         style="stroke-width:1.06666672"
         d="M 0,0 H 211.2 V 61.866667 H 0 Z"
         id="path3022" /></clipPath><clipPath
       clipPathUnits="userSpaceOnUse"
       id="clipPath3020-8"><path
         style="stroke-width:1.06666672"
         d="M 0,0 H 211.2 V 61.866667 H 0 Z"
         id="path3022-1" /></clipPath></defs><metadata
     id="metadata5"><rdf:RDF><cc:Work
         rdf:about=""><dc:format>image/svg+xml</dc:format><dc:type
           rdf:resource="http://purl.org/dc/dcmitype/StillImage" /><dc:creator><cc:Agent><dc:title>Blender Logo</dc:title></cc:Agent></dc:creator><dc:source>https://www.blender.org/about/logo/</dc:source><cc:license
           rdf:resource="(c) Blender Foundation" /></cc:Work></rdf:RDF></metadata><g
     transform="translate(42.023693,-77.734934)"
     id="layer1"><g
       transform="matrix(0.26259939,0,0,-0.26259939,-42.237694,93.888967)"
       id="g3012"
       style="stroke-width:7.2904439"><g
         id="g3014"
         style="stroke-width:7.2904439" /><g
         id="g3016"
         style="stroke-width:7.2904439"><g
           clip-path="url(#clipPath3020-8)"
           id="g3018"
           style="stroke-width:7.2904439"><path
             style="display:inline;fill:#ffffff;fill-opacity:1;stroke-width:0.0488215"
             d="M 10.964243,11.909546 C 9.8058951,11.642509 8.6235874,10.589572 8.2279766,9.4726889 8.0041995,8.8409205 7.941342,8.0143985 8.0646092,7.3245282 8.3076823,5.9641737 9.3904204,4.7561647 10.785473,4.288856 c 0.301419,-0.1009684 0.428775,-0.1132597 1.168266,-0.1127287 0.682951,6.435e-4 0.877535,0.016812 1.098489,0.092273 0.792413,0.27052 1.544587,0.7974106 1.998701,1.4000597 0.299846,0.3979291 0.632998,0.9935156 0.583453,1.0430586 -0.05,0.050034 -5.6579576,0.052688 -5.6574756,0.00322 10e-4,-0.1074679 0.2954066,-0.5539024 0.4612466,-0.699507 l 0.176388,-0.1548713 h 1.737449 c 1.957886,0 1.872941,0.02381 1.291909,-0.362093 C 12.708963,4.8772994 11.203472,4.8719984 10.282309,5.48644 9.9317339,5.7202793 9.4157976,6.2838587 9.2519339,6.6119658 9.0405398,7.0352415 8.9512054,7.4563856 8.9512054,8.0296661 c 0,0.9210953 0.1970782,1.4597785 0.7547316,2.0629389 0.411237,0.444785 0.724832,0.651967 1.246958,0.823819 0.361322,0.118915 0.490742,0.136579 1.000844,0.136579 0.502445,0 0.641472,-0.01834 0.976435,-0.129106 0.214815,-0.07103 0.494835,-0.195244 0.622265,-0.276078 0.246608,-0.156424 0.655486,-0.541644 0.900001,-0.8479297 l 0.148428,-0.1859239 0.446222,0.08553 c 0.245422,0.04706 0.446223,0.1044609 0.446223,0.1275792 0,0.0592 -0.369785,0.6023224 -0.597979,0.8782714 -0.240214,0.290486 -0.862361,0.762243 -1.266407,0.960278 -0.684972,0.335725 -1.817858,0.439629 -2.664684,0.244409 z M 35.559029,8.0568789 V 6.3481142 h 1.171714 1.171723 v 0.2929307 0.2929306 h -0.854379 -0.854378 v 0.439396 0.4393959 h 0.854378 0.854379 v 0.2441115 0.2441035 h -0.854379 -0.854378 v 0.439396 0.4393959 h 0.854378 0.854379 V 9.472705 9.765637 h -1.171723 -1.171714 z m 2.831652,-0.00241 v -1.710996 l 0.324559,0.014479 0.324552,0.014479 0.501319,0.8966576 c 0.275724,0.4931702 0.525129,0.920476 0.55424,0.9495872 0.03805,0.037968 0.05293,-0.2180328 0.05293,-0.9088684 v -0.96179 h 0.29293 0.292931 V 8.0591071 9.770198 L 40.429008,9.755638 40.123867,9.741078 39.586833,8.7504327 39.049791,7.7597889 39.036601,8.7626355 39.023411,9.7654913 H 38.707057 38.39071 Z m 2.782841,0.00241 V 6.3481142 h 1.171722 1.171715 V 6.6410449 6.9339755 H 42.66258 41.808202 v 1.1229034 1.1228954 h 0.561448 0.561447 V 8.7403784 8.3009824 h -0.341749 -0.34175 V 8.0568789 7.8127674 h 0.63468 0.634681 V 8.7892055 9.765637 h -1.171715 -1.171722 z m 2.83166,0 V 6.3481142 h 0.317336 0.317344 V 8.0568789 9.765637 h -0.317344 -0.317336 z m 1.171714,-0.00241 v -1.710996 l 0.32456,0.014479 0.324552,0.014479 0.501318,0.8966576 c 0.275725,0.4931702 0.525129,0.920476 0.554241,0.9495872 0.03805,0.037968 0.05293,-0.2180328 0.05293,-0.9088684 v -0.96179 h 0.292931 0.29293 V 8.0591071 9.770198 l -0.305134,-0.01456 -0.305141,-0.01456 -0.537035,-0.9906453 -0.537042,-0.9906438 -0.01319,1.0028466 -0.01319,1.0028558 h -0.316347 -0.316355 z m 2.782841,0.00241 V 6.3481142 h 1.171723 1.171714 v 0.2929307 0.2929306 h -0.854378 -0.854378 v 0.439396 0.4393959 h 0.854378 0.854378 v 0.2441115 0.2441035 h -0.854378 -0.854378 v 0.439396 0.4393959 h 0.854378 0.854378 V 9.472705 9.765637 H 49.13146 47.959737 Z"
             id="path2342-2"
             sodipodi:nodetypes="csssccsscscscssssssssscsssscccccccccccccccccccccccccccccccsssccccccccccccccccccccccccccccccccccccccccccccccccccccsssccccccccccccccccccccccccccccccccccccccc"
             transform="matrix(3.8080819,0,0,-3.8080819,0.81493335,61.515882)" /><path
             style="fill:#e02323;fill-opacity:1;stroke-width:0.0488215"
             d="m 10.839134,14.39224 c -0.03416,-0.16783 -0.111085,-0.513746 -0.170948,-0.768709 l -0.108843,-0.463568 -0.287322,-0.104347 c -0.5597075,-0.20328 -0.8083977,-0.306163 -0.8763559,-0.362568 -0.070112,-0.05816 -0.3653838,0.101451 -1.104843,0.597324 -0.1529247,0.102553 -0.3096518,0.18646 -0.3482807,0.18646 -0.06588,0 -1.4485957,-1.392386 -1.4485957,-1.458724 0,-0.01689 0.078413,-0.140433 0.1742453,-0.274607 0.095835,-0.134174 0.2850451,-0.426847 0.4204668,-0.650382 L 7.3348793,10.686687 7.1362904,10.238741 C 7.0270664,9.9923684 6.9123765,9.7010993 6.8814232,9.5914752 L 6.8251473,9.3921684 6.2567681,9.277139 C 5.9441602,9.2138327 5.6005105,9.1363769 5.4931029,9.1049248 L 5.297816,9.0477319 5.284656,8.0207292 5.271496,6.9937184 5.5043556,6.9421563 C 5.6324283,6.9137609 5.9934072,6.8319694 6.3065324,6.7603375 L 6.8758495,6.630097 6.9076796,6.4604086 C 6.9410864,6.2823223 7.2552862,5.5273599 7.3287063,5.4487538 7.3534336,5.422289 7.3443519,5.3708878 7.3071242,5.3267021 7.2546773,5.2644414 6.8649354,4.6516086 6.5504878,4.1370253 6.4885731,4.0356949 6.5242,3.9903428 7.2004188,3.309699 7.5939108,2.9136361 7.939878,2.5895752 7.9692338,2.5895752 c 0.029361,0 0.1213584,0.05116 0.204449,0.1136136 0.08309,0.062502 0.3733474,0.2495734 0.6450145,0.4157385 L 9.3126388,3.4210603 9.5754334,3.2992901 C 9.7199706,3.2322835 9.9954614,3.1287008 10.187635,3.0690383 l 0.349406,-0.1084815 0.123743,-0.5394473 c 0.06806,-0.2966952 0.137656,-0.61634 0.154661,-0.7103182 0.06745,-0.3727754 -0.03395,-0.3417577 1.117279,-0.3417577 h 1.038247 l 0.151827,0.6957102 c 0.0835,0.3826374 0.158563,0.7352787 0.166799,0.7836474 0.01072,0.062985 0.147338,0.1339649 0.481579,0.2501928 0.256634,0.089248 0.536401,0.1983572 0.621704,0.2424625 0.151537,0.078349 0.161555,0.076579 0.436594,-0.076418 0.154824,-0.086119 0.440848,-0.2629828 0.635608,-0.3930222 0.194761,-0.1300314 0.382647,-0.2473774 0.417524,-0.2607627 0.06953,-0.026706 1.498575,1.3239233 1.498575,1.4163167 0,0.03105 -0.144251,0.2750328 -0.320559,0.5421663 -0.176307,0.2671415 -0.354568,0.5571039 -0.396136,0.6443814 -0.04157,0.087261 -0.09185,0.1586681 -0.111747,0.1586681 -0.01989,0 0.03408,0.1482913 0.119926,0.3295469 0.178853,0.3775938 0.434785,1.0376691 0.408718,1.0541352 -0.0096,0.00644 -0.250172,0.00322 -0.534497,-0.00724 L 16.029932,6.7307195 15.874151,6.349707 C 15.508377,5.4551005 14.790759,4.6615671 13.988073,4.2641046 12.624482,3.5889066 11.42981,3.5511399 10.082338,4.140629 9.5835216,4.358855 9.3385261,4.5263956 8.892933,4.953991 8.4671347,5.3625944 8.2318016,5.6955279 7.9934471,6.2265291 7.6719755,6.9426872 7.5925538,7.3117061 7.5941634,8.081751 c 0.00169,0.8154856 0.091186,1.1958948 0.4593644,1.952873 0.4050762,0.832836 1.0367392,1.463519 1.882344,1.879434 0.7670192,0.377264 1.1342362,0.463303 1.9772792,0.463303 0.843194,0 1.191003,-0.08232 1.987823,-0.47051 0.812054,-0.395605 1.537851,-1.13949 1.90775,-1.955283 0.172451,-0.38034 0.27186,-0.3119413 -0.770984,-0.5304814 -1.108941,-0.2323915 -1.533766,-0.3412912 -1.573182,-0.4032623 -0.04369,-0.068696 -0.0504,-0.8223551 -0.0083,-0.9320834 0.02651,-0.069098 0.300102,-0.077223 2.58755,-0.077223 h 2.557915 v 0.5315722 0.5315803 l -0.42719,0.1012258 c -0.234954,0.055665 -0.586819,0.1380835 -0.781921,0.1831299 -0.313181,0.072316 -0.358119,0.096826 -0.383659,0.2093695 -0.02507,0.1104614 -0.129206,0.3672131 -0.387943,0.9564704 -0.05547,0.126322 -0.05235,0.16491 0.02367,0.29293 0.08675,0.14607 0.546726,0.899924 0.687609,1.12691 0.07183,0.115737 0.06027,0.130795 -0.63405,0.826361 -0.388971,0.389667 -0.736499,0.708484 -0.772286,0.708484 -0.03579,0 -0.156905,-0.06315 -0.269151,-0.140344 -0.55138,-0.379171 -1.122656,-0.688825 -1.181192,-0.640239 -0.06806,0.05647 -0.899604,0.389604 -0.975423,0.390762 -0.126335,0.0016 -0.176543,0.121907 -0.316895,0.757319 -0.08287,0.375197 -0.162372,0.720615 -0.176664,0.767608 -0.02368,0.07787 -0.117941,0.08544 -1.065689,0.08544 H 10.901235 Z M 16.53901,4.2884297 c 0.175658,-0.1441889 0.191846,-0.1947053 0.08959,-0.2795696 -0.05551,-0.046092 -0.115444,-0.013836 -0.305135,0.1640656 -0.292569,0.2744134 -0.358108,0.2808486 -0.358108,0.035152 0,-0.1033575 -0.01415,-0.3553039 -0.03144,-0.5598792 l -0.03144,-0.3719469 -0.15164,0.126114 c -0.0834,0.069339 -0.289605,0.2578587 -0.458228,0.4188676 -0.245135,0.2340565 -0.295313,0.3063239 -0.250336,0.3605164 0.08265,0.099593 0.107351,0.089385 0.38267,-0.1581532 0.13821,-0.1242639 0.261095,-0.2161265 0.273078,-0.2041409 0.01199,0.011986 0.03646,0.2786766 0.05439,0.5926584 l 0.0326,0.5708673 0.297663,-0.2821517 c 0.163714,-0.155185 0.369064,-0.3407603 0.456333,-0.4123922 z M 8.2533329,4.8087966 C 8.306174,4.7451685 8.2881072,4.7049082 8.1372563,4.550423 7.8349343,4.2408172 7.9059267,4.156339 8.3440871,4.3043085 c 0.2474466,0.083569 0.3139094,0.090439 0.3760107,0.038933 0.0644,-0.053412 0.037421,-0.072155 -0.184363,-0.1278032 C 8.1150838,4.1098607 8.1171028,4.1116787 8.2778905,3.9834732 L 8.4220544,3.8685163 8.2248467,3.6358433 C 7.9023141,3.2553135 7.9062653,3.2554422 7.5452687,3.6132397 L 7.228153,3.9275352 7.592742,4.2960393 c 0.2005243,0.2026768 0.3990746,0.4179345 0.4412228,0.4783531 0.090356,0.1295246 0.134684,0.1364827 0.2193681,0.034428 z M 7.6525098,4.0577838 7.5196847,3.9170539 7.6946379,3.7420967 7.8695911,3.5671475 8.0176837,3.7152377 c 0.08145,0.081454 0.1396818,0.1526029 0.1294024,0.1581131 -0.01028,0.00563 -0.095879,0.080915 -0.1902207,0.1675888 L 7.7853341,4.1985137 Z M 11.669047,2.6628159 c 0.120833,-0.227919 0.232876,-0.4145319 0.248984,-0.4146928 0.03359,-3.218e-4 0.385698,0.5812601 0.385698,0.6370775 0,0.020271 -0.126327,0.025902 -0.280725,0.012549 -0.247201,-0.021478 -0.288062,-0.012146 -0.342166,0.077866 -0.0608,0.1011695 -0.05612,0.1022233 0.451601,0.1022233 0.282173,0 0.513041,-0.00877 0.513041,-0.019386 0,-0.010698 -0.09236,-0.1699618 -0.205239,-0.3539605 C 12.32736,2.5205013 12.166372,2.2430875 12.082492,2.0880312 L 11.929981,1.8061048 11.797033,2.0392121 c -0.119754,0.2099648 -0.218425,0.3746658 -0.52721,0.8799905 l -0.09696,0.1586681 0.138242,-2.896e-4 c 0.123571,-2.574e-4 0.161555,-0.044242 0.357939,-0.4146928 z M 20.164021,8.057619 V 6.3488543 h 1.171721 1.17172 v 0.9764381 0.9764301 h -0.390573 c -0.250134,0 -0.390573,0.019225 -0.390573,0.053412 0,0.029361 0.164773,0.348008 0.366162,0.70809 0.201389,0.360082 0.366163,0.6666971 0.366163,0.6813692 0,0.01464 -0.125601,0.02011 -0.279114,0.01207 l -0.279113,-0.01464 -0.41812,-0.7079145 C 21.122966,8.4257289 21.045509,8.3240205 20.931438,8.3107398 L 20.798703,8.2952948 V 9.0308631 9.766433 H 20.481362 20.164021 Z M 21.921603,7.3741115 V 6.9347156 h -0.56145 -0.56145 v 0.4393959 0.439396 h 0.56145 0.56145 z M 22.99568,8.057619 V 6.3488543 h 1.171721 1.171722 V 8.057619 9.766377 h -0.29293 -0.292931 V 9.0340491 8.3017225 H 24.191814 23.630359 V 9.0340491 9.766377 H 23.313021 22.99568 Z M 24.753262,7.3741115 V 6.9347156 h -0.561448 -0.561455 v 0.4393959 0.439396 h 0.561455 0.561448 z m 1.074076,0.6812713 V 6.3443979 l 0.324552,0.014479 0.324552,0.014479 0.501326,0.8966656 c 0.275717,0.4931621 0.525121,0.920476 0.554233,0.9495792 0.03805,0.037968 0.05293,-0.2180329 0.05293,-0.9088684 v -0.96179 h 0.292931 0.29293 V 8.0600317 9.771123 L 27.865659,9.756563 27.560526,9.742003 27.023483,8.7513573 26.486449,7.7607134 26.473259,8.76356 26.460069,9.7664083 h -0.316347 -0.316355 z m 2.83166,0.00241 V 6.3490393 h 1.171715 1.171722 V 6.6419699 6.9349006 H 30.148057 29.293679 V 8.057796 9.1806994 h 0.561447 0.561448 V 8.7413035 8.3019075 h -0.34175 -0.341749 V 8.057796 7.8136925 h 0.63468 0.63468 v 0.97643 0.9764395 h -1.171722 -1.171715 z m 2.831652,0 V 6.3490393 h 1.171723 1.171722 v 0.2929306 0.2929307 h -0.854378 -0.854386 v 0.4393959 0.439396 h 0.854386 0.854378 V 8.057796 8.3019075 h -0.854378 -0.854386 v 0.439396 0.4393959 h 0.854386 0.854378 V 9.47363 9.766562 H 32.662373 31.49065 Z"
             id="path2342"
             sodipodi:nodetypes="sscssssssscsscssccccscscsssssscsscssscsssssssssssssccssssssssssssssscccsssssssssssssscssscsscsssssscsscssssscsscssccccccssscccsscssssscsscsccccccccssssccsscccccccccccccccccccccccccccccccccccccccccccccssscccccccccccccccccccccccccccccccccccccccccccccccccccccccccccccccc"
             transform="matrix(3.8080819,0,0,-3.8080819,0.81493335,61.515882)" /></g></g></g></g><g
     inkscape:label="Camada 1"
     id="layer1-4"
     transform="translate(-79.161323,-150.0736)" /></svg>
